<mxfile host="app.diagrams.net" agent="Mozilla/5.0 (Windows NT 10.0; Win64; x64) AppleWebKit/537.36 (KHTML, like Gecko) Chrome/127.0.0.0 Safari/537.36 Edg/127.0.0.0" version="24.7.7">
  <diagram name="第 1 页" id="tDYi9_0GRjETs3fzdsuX">
    <mxGraphModel dx="1666" dy="757" grid="1" gridSize="10" guides="1" tooltips="1" connect="1" arrows="1" fold="1" page="1" pageScale="1" pageWidth="827" pageHeight="1169" math="0" shadow="0">
      <root>
        <mxCell id="0" />
        <mxCell id="1" parent="0" />
        <mxCell id="yHGfgmWwClQTFSnPWuJ6-106" value="&lt;span style=&quot;color: rgba(0, 0, 0, 0); font-family: monospace; font-size: 0px; text-align: start; text-wrap: nowrap;&quot;&gt;%3CmxGraphModel%3E%3Croot%3E%3CmxCell%20id%3D%220%22%2F%3E%3CmxCell%20id%3D%221%22%20parent%3D%220%22%2F%3E%3CmxCell%20id%3D%222%22%20value%3D%22%26lt%3Bfont%20style%3D%26quot%3Bfont-size%3A%2024px%3B%26quot%3B%26gt%3B1%26lt%3B%2Ffont%26gt%3B%22%20style%3D%22text%3Bhtml%3D1%3Balign%3Dcenter%3BverticalAlign%3Dmiddle%3BwhiteSpace%3Dwrap%3Brounded%3D0%3B%22%20vertex%3D%221%22%20parent%3D%221%22%3E%3CmxGeometry%20x%3D%22115%22%20y%3D%22200%22%20width%3D%2260%22%20height%3D%2230%22%20as%3D%22geometry%22%2F%3E%3C%2FmxCell%3E%3C%2Froot%3E%3C%2FmxGraphModel%3E&lt;/span&gt;" style="rounded=1;whiteSpace=wrap;html=1;arcSize=3;" vertex="1" parent="1">
          <mxGeometry x="90" y="80" width="670" height="530" as="geometry" />
        </mxCell>
        <mxCell id="yHGfgmWwClQTFSnPWuJ6-107" value="" style="endArrow=none;dashed=1;html=1;rounded=0;" edge="1" parent="1">
          <mxGeometry width="50" height="50" relative="1" as="geometry">
            <mxPoint x="420" y="640" as="sourcePoint" />
            <mxPoint x="420" y="40" as="targetPoint" />
          </mxGeometry>
        </mxCell>
        <mxCell id="yHGfgmWwClQTFSnPWuJ6-108" value="&lt;font color=&quot;#8c8c8c&quot; style=&quot;font-size: 72px;&quot;&gt;&lt;b&gt;A区&lt;/b&gt;&lt;/font&gt;" style="text;html=1;align=center;verticalAlign=middle;whiteSpace=wrap;rounded=0;" vertex="1" parent="1">
          <mxGeometry x="180" y="320" width="170" height="30" as="geometry" />
        </mxCell>
        <mxCell id="yHGfgmWwClQTFSnPWuJ6-109" value="&lt;font color=&quot;#8c8c8c&quot; style=&quot;font-size: 72px;&quot;&gt;&lt;b&gt;B区&lt;/b&gt;&lt;/font&gt;" style="text;html=1;align=center;verticalAlign=middle;whiteSpace=wrap;rounded=0;" vertex="1" parent="1">
          <mxGeometry x="530" y="320" width="140" height="30" as="geometry" />
        </mxCell>
        <mxCell id="yHGfgmWwClQTFSnPWuJ6-110" value="&lt;font style=&quot;font-size: 20px;&quot;&gt;场&lt;/font&gt;&lt;div&gt;&lt;font style=&quot;font-size: 20px;&quot;&gt;景&lt;/font&gt;&lt;/div&gt;&lt;div&gt;&lt;span style=&quot;font-size: 20px; background-color: initial;&quot;&gt;卡&lt;/span&gt;&lt;/div&gt;" style="rounded=0;whiteSpace=wrap;html=1;shadow=1;" vertex="1" parent="1">
          <mxGeometry x="120" y="370" width="50" height="80" as="geometry" />
        </mxCell>
        <mxCell id="yHGfgmWwClQTFSnPWuJ6-111" value="&lt;span style=&quot;font-size: 20px;&quot;&gt;d&lt;/span&gt;&lt;br&gt;&lt;div&gt;&lt;font style=&quot;font-size: 20px;&quot;&gt;角色&lt;/font&gt;&lt;/div&gt;" style="rounded=0;whiteSpace=wrap;html=1;shadow=1;" vertex="1" parent="1">
          <mxGeometry x="120" y="480" width="50" height="80" as="geometry" />
        </mxCell>
        <mxCell id="yHGfgmWwClQTFSnPWuJ6-112" value="&lt;span style=&quot;font-size: 20px;&quot;&gt;e&lt;/span&gt;&lt;br&gt;&lt;div&gt;&lt;font style=&quot;font-size: 20px;&quot;&gt;角色&lt;/font&gt;&lt;/div&gt;" style="rounded=0;whiteSpace=wrap;html=1;shadow=1;" vertex="1" parent="1">
          <mxGeometry x="220" y="480" width="50" height="80" as="geometry" />
        </mxCell>
        <mxCell id="yHGfgmWwClQTFSnPWuJ6-113" value="&lt;span style=&quot;font-size: 20px;&quot;&gt;f&lt;/span&gt;&lt;br&gt;&lt;div&gt;&lt;font style=&quot;font-size: 20px;&quot;&gt;角色&lt;/font&gt;&lt;/div&gt;" style="rounded=0;whiteSpace=wrap;html=1;shadow=1;" vertex="1" parent="1">
          <mxGeometry x="320" y="480" width="50" height="80" as="geometry" />
        </mxCell>
        <mxCell id="yHGfgmWwClQTFSnPWuJ6-114" value="&lt;span style=&quot;font-size: 20px;&quot;&gt;a&lt;/span&gt;&lt;br&gt;&lt;div&gt;&lt;font style=&quot;font-size: 20px;&quot;&gt;角色&lt;/font&gt;&lt;/div&gt;" style="rounded=0;whiteSpace=wrap;html=1;shadow=1;" vertex="1" parent="1">
          <mxGeometry x="120" y="100" width="50" height="80" as="geometry" />
        </mxCell>
        <mxCell id="yHGfgmWwClQTFSnPWuJ6-115" value="&lt;span style=&quot;font-size: 20px;&quot;&gt;b&lt;/span&gt;&lt;br&gt;&lt;div&gt;&lt;font style=&quot;font-size: 20px;&quot;&gt;角色&lt;/font&gt;&lt;/div&gt;" style="rounded=0;whiteSpace=wrap;html=1;shadow=1;" vertex="1" parent="1">
          <mxGeometry x="220" y="100" width="50" height="80" as="geometry" />
        </mxCell>
        <mxCell id="yHGfgmWwClQTFSnPWuJ6-116" value="&lt;div&gt;&lt;font style=&quot;font-size: 20px;&quot;&gt;c&lt;/font&gt;&lt;/div&gt;&lt;div&gt;&lt;font style=&quot;font-size: 20px;&quot;&gt;角色&lt;/font&gt;&lt;/div&gt;" style="rounded=0;whiteSpace=wrap;html=1;shadow=1;" vertex="1" parent="1">
          <mxGeometry x="320" y="100" width="50" height="80" as="geometry" />
        </mxCell>
        <mxCell id="yHGfgmWwClQTFSnPWuJ6-117" value="&lt;font style=&quot;font-size: 20px;&quot;&gt;场&lt;/font&gt;&lt;div&gt;&lt;font style=&quot;font-size: 20px;&quot;&gt;景&lt;/font&gt;&lt;/div&gt;&lt;div&gt;&lt;span style=&quot;font-size: 20px; background-color: initial;&quot;&gt;卡&lt;/span&gt;&lt;/div&gt;" style="rounded=0;whiteSpace=wrap;html=1;shadow=1;" vertex="1" parent="1">
          <mxGeometry x="220" y="370" width="50" height="80" as="geometry" />
        </mxCell>
        <mxCell id="yHGfgmWwClQTFSnPWuJ6-118" value="&lt;font style=&quot;font-size: 20px;&quot;&gt;场&lt;/font&gt;&lt;div&gt;&lt;font style=&quot;font-size: 20px;&quot;&gt;景&lt;/font&gt;&lt;/div&gt;&lt;div&gt;&lt;span style=&quot;font-size: 20px; background-color: initial;&quot;&gt;卡&lt;/span&gt;&lt;/div&gt;" style="rounded=0;whiteSpace=wrap;html=1;shadow=1;" vertex="1" parent="1">
          <mxGeometry x="320" y="370" width="50" height="80" as="geometry" />
        </mxCell>
        <mxCell id="yHGfgmWwClQTFSnPWuJ6-119" value="&lt;font style=&quot;font-size: 20px;&quot;&gt;场&lt;/font&gt;&lt;div&gt;&lt;font style=&quot;font-size: 20px;&quot;&gt;景&lt;/font&gt;&lt;/div&gt;&lt;div&gt;&lt;span style=&quot;font-size: 20px; background-color: initial;&quot;&gt;卡&lt;/span&gt;&lt;/div&gt;" style="rounded=0;whiteSpace=wrap;html=1;shadow=1;" vertex="1" parent="1">
          <mxGeometry x="120" y="220" width="50" height="80" as="geometry" />
        </mxCell>
        <mxCell id="yHGfgmWwClQTFSnPWuJ6-120" value="&lt;font style=&quot;font-size: 20px;&quot;&gt;场&lt;/font&gt;&lt;div&gt;&lt;font style=&quot;font-size: 20px;&quot;&gt;景&lt;/font&gt;&lt;/div&gt;&lt;div&gt;&lt;span style=&quot;font-size: 20px; background-color: initial;&quot;&gt;卡&lt;/span&gt;&lt;/div&gt;" style="rounded=0;whiteSpace=wrap;html=1;shadow=1;" vertex="1" parent="1">
          <mxGeometry x="220" y="220" width="50" height="80" as="geometry" />
        </mxCell>
        <mxCell id="yHGfgmWwClQTFSnPWuJ6-121" value="&lt;font style=&quot;font-size: 20px;&quot;&gt;场&lt;/font&gt;&lt;div&gt;&lt;font style=&quot;font-size: 20px;&quot;&gt;景&lt;/font&gt;&lt;/div&gt;&lt;div&gt;&lt;span style=&quot;font-size: 20px; background-color: initial;&quot;&gt;卡&lt;/span&gt;&lt;/div&gt;" style="rounded=0;whiteSpace=wrap;html=1;shadow=1;" vertex="1" parent="1">
          <mxGeometry x="320" y="220" width="50" height="80" as="geometry" />
        </mxCell>
        <mxCell id="yHGfgmWwClQTFSnPWuJ6-122" value="&lt;font style=&quot;font-size: 20px;&quot;&gt;场&lt;/font&gt;&lt;div&gt;&lt;font style=&quot;font-size: 20px;&quot;&gt;景&lt;/font&gt;&lt;/div&gt;&lt;div&gt;&lt;span style=&quot;font-size: 20px; background-color: initial;&quot;&gt;卡&lt;/span&gt;&lt;/div&gt;" style="rounded=0;whiteSpace=wrap;html=1;shadow=1;" vertex="1" parent="1">
          <mxGeometry x="450" y="220" width="50" height="80" as="geometry" />
        </mxCell>
        <mxCell id="yHGfgmWwClQTFSnPWuJ6-123" value="&lt;font style=&quot;font-size: 20px;&quot;&gt;场&lt;/font&gt;&lt;div&gt;&lt;font style=&quot;font-size: 20px;&quot;&gt;景&lt;/font&gt;&lt;/div&gt;&lt;div&gt;&lt;span style=&quot;font-size: 20px; background-color: initial;&quot;&gt;卡&lt;/span&gt;&lt;/div&gt;" style="rounded=0;whiteSpace=wrap;html=1;shadow=1;" vertex="1" parent="1">
          <mxGeometry x="560" y="220" width="50" height="80" as="geometry" />
        </mxCell>
        <mxCell id="yHGfgmWwClQTFSnPWuJ6-124" value="&lt;font style=&quot;font-size: 20px;&quot;&gt;场&lt;/font&gt;&lt;div&gt;&lt;font style=&quot;font-size: 20px;&quot;&gt;景&lt;/font&gt;&lt;/div&gt;&lt;div&gt;&lt;span style=&quot;font-size: 20px; background-color: initial;&quot;&gt;卡&lt;/span&gt;&lt;/div&gt;" style="rounded=0;whiteSpace=wrap;html=1;shadow=1;" vertex="1" parent="1">
          <mxGeometry x="670" y="220" width="50" height="80" as="geometry" />
        </mxCell>
        <mxCell id="yHGfgmWwClQTFSnPWuJ6-125" value="&lt;font style=&quot;font-size: 20px;&quot;&gt;角色&lt;/font&gt;" style="rounded=0;whiteSpace=wrap;html=1;shadow=1;" vertex="1" parent="1">
          <mxGeometry x="450" y="100" width="50" height="80" as="geometry" />
        </mxCell>
        <mxCell id="yHGfgmWwClQTFSnPWuJ6-126" value="&lt;font style=&quot;font-size: 20px;&quot;&gt;角色&lt;/font&gt;" style="rounded=0;whiteSpace=wrap;html=1;shadow=1;" vertex="1" parent="1">
          <mxGeometry x="560" y="100" width="50" height="80" as="geometry" />
        </mxCell>
        <mxCell id="yHGfgmWwClQTFSnPWuJ6-127" value="&lt;font style=&quot;font-size: 20px;&quot;&gt;角色&lt;/font&gt;" style="rounded=0;whiteSpace=wrap;html=1;shadow=1;" vertex="1" parent="1">
          <mxGeometry x="670" y="100" width="50" height="80" as="geometry" />
        </mxCell>
        <mxCell id="yHGfgmWwClQTFSnPWuJ6-128" value="&lt;font style=&quot;font-size: 20px;&quot;&gt;场&lt;/font&gt;&lt;div&gt;&lt;font style=&quot;font-size: 20px;&quot;&gt;景&lt;/font&gt;&lt;/div&gt;&lt;div&gt;&lt;span style=&quot;font-size: 20px; background-color: initial;&quot;&gt;卡&lt;/span&gt;&lt;/div&gt;" style="rounded=0;whiteSpace=wrap;html=1;shadow=1;" vertex="1" parent="1">
          <mxGeometry x="450" y="370" width="50" height="80" as="geometry" />
        </mxCell>
        <mxCell id="yHGfgmWwClQTFSnPWuJ6-129" value="&lt;font style=&quot;font-size: 20px;&quot;&gt;场&lt;/font&gt;&lt;div&gt;&lt;font style=&quot;font-size: 20px;&quot;&gt;景&lt;/font&gt;&lt;/div&gt;&lt;div&gt;&lt;span style=&quot;font-size: 20px; background-color: initial;&quot;&gt;卡&lt;/span&gt;&lt;/div&gt;" style="rounded=0;whiteSpace=wrap;html=1;shadow=1;" vertex="1" parent="1">
          <mxGeometry x="560" y="370" width="50" height="80" as="geometry" />
        </mxCell>
        <mxCell id="yHGfgmWwClQTFSnPWuJ6-130" value="&lt;font style=&quot;font-size: 20px;&quot;&gt;场&lt;/font&gt;&lt;div&gt;&lt;font style=&quot;font-size: 20px;&quot;&gt;景&lt;/font&gt;&lt;/div&gt;&lt;div&gt;&lt;span style=&quot;font-size: 20px; background-color: initial;&quot;&gt;卡&lt;/span&gt;&lt;/div&gt;" style="rounded=0;whiteSpace=wrap;html=1;shadow=1;" vertex="1" parent="1">
          <mxGeometry x="670" y="370" width="50" height="80" as="geometry" />
        </mxCell>
        <mxCell id="yHGfgmWwClQTFSnPWuJ6-131" value="&lt;font style=&quot;font-size: 20px;&quot;&gt;角色&lt;/font&gt;" style="rounded=0;whiteSpace=wrap;html=1;shadow=1;" vertex="1" parent="1">
          <mxGeometry x="450" y="480" width="50" height="80" as="geometry" />
        </mxCell>
        <mxCell id="yHGfgmWwClQTFSnPWuJ6-132" value="&lt;font style=&quot;font-size: 20px;&quot;&gt;角色&lt;/font&gt;" style="rounded=0;whiteSpace=wrap;html=1;shadow=1;" vertex="1" parent="1">
          <mxGeometry x="560" y="480" width="50" height="80" as="geometry" />
        </mxCell>
        <mxCell id="yHGfgmWwClQTFSnPWuJ6-133" value="&lt;font style=&quot;font-size: 20px;&quot;&gt;角色&lt;/font&gt;" style="rounded=0;whiteSpace=wrap;html=1;shadow=1;" vertex="1" parent="1">
          <mxGeometry x="670" y="480" width="50" height="80" as="geometry" />
        </mxCell>
        <mxCell id="yHGfgmWwClQTFSnPWuJ6-134" value="&lt;font style=&quot;font-size: 24px;&quot;&gt;1&lt;/font&gt;" style="text;html=1;align=center;verticalAlign=middle;whiteSpace=wrap;rounded=0;" vertex="1" parent="1">
          <mxGeometry x="115" y="200" width="60" height="30" as="geometry" />
        </mxCell>
        <mxCell id="yHGfgmWwClQTFSnPWuJ6-135" value="&lt;font style=&quot;font-size: 24px;&quot;&gt;2&lt;/font&gt;" style="text;html=1;align=center;verticalAlign=middle;whiteSpace=wrap;rounded=0;" vertex="1" parent="1">
          <mxGeometry x="215" y="200" width="60" height="30" as="geometry" />
        </mxCell>
        <mxCell id="yHGfgmWwClQTFSnPWuJ6-136" value="&lt;font style=&quot;font-size: 24px;&quot;&gt;3&lt;/font&gt;" style="text;html=1;align=center;verticalAlign=middle;whiteSpace=wrap;rounded=0;" vertex="1" parent="1">
          <mxGeometry x="315" y="200" width="60" height="30" as="geometry" />
        </mxCell>
        <mxCell id="yHGfgmWwClQTFSnPWuJ6-137" value="&lt;font style=&quot;font-size: 24px;&quot;&gt;4&lt;/font&gt;" style="text;html=1;align=center;verticalAlign=middle;whiteSpace=wrap;rounded=0;" vertex="1" parent="1">
          <mxGeometry x="115" y="350" width="60" height="30" as="geometry" />
        </mxCell>
        <mxCell id="yHGfgmWwClQTFSnPWuJ6-138" value="&lt;font style=&quot;font-size: 24px;&quot;&gt;5&lt;/font&gt;" style="text;html=1;align=center;verticalAlign=middle;whiteSpace=wrap;rounded=0;" vertex="1" parent="1">
          <mxGeometry x="215" y="350" width="60" height="30" as="geometry" />
        </mxCell>
        <mxCell id="yHGfgmWwClQTFSnPWuJ6-139" value="&lt;font style=&quot;font-size: 24px;&quot;&gt;6&lt;/font&gt;" style="text;html=1;align=center;verticalAlign=middle;whiteSpace=wrap;rounded=0;" vertex="1" parent="1">
          <mxGeometry x="315" y="350" width="60" height="30" as="geometry" />
        </mxCell>
      </root>
    </mxGraphModel>
  </diagram>
</mxfile>
